# xmcd
#
# Track frame offsets: 
#        150
#        11814
#        27678
#        47532
#        58634
#        71708
#        84130
#        101355
#        112197
#        124238
#
# Disc length: 1811 seconds
#
# Revision: 0
# Processed by: cddbd v1.5.1PL2 Copyright (c) Steve Scherf et al.
# Submitted via: ExactAudioCopy v0.95b3
#
DISCID=8507110a
DTITLE=Prater, Sherr Hicks - Bluegrass Gospel You've Requested
DYEAR=1900
DGENRE=Bluegrass
TTITLE0=Coming Down
TTITLE1=White Dove
TTITLE2=I'll Be Glad To Go Home
TTITLE3=Great High Mountain
TTITLE4=Six Hours On The Cross
TTITLE5=What Kind Of Man
TTITLE6=Snow Covered Mound
TTITLE7=Mountain Preachers Child
TTITLE8=Consider The Lillies
TTITLE9=Great Speckled Bird
EXTD=
EXTT0=
EXTT1=
EXTT2=
EXTT3=
EXTT4=
EXTT5=
EXTT6=
EXTT7=
EXTT8=
EXTT9=
PLAYORDER=
